PathFileType	4	(x/y/z)	S04_M20_T19.trc
DataRate	CameraRate	NumFrames	NumMarkers	Units	OrigDataRate	OrigDataStartFrame	OrigNumFrames
240	240	6	51	mm	240	267	532
Frame#	Time	Sternum			R.Acromium			L.Acromium			Top.Head			R.ASIS			L.ASIS			R.PSIS			L.PSIS			R.Great.Tro			L.Great.Tro			R.Iliac.Crest			L.Iliac.Crest			V.Sacral			R.Thigh.Upper.Post			R.Thigh.Lower.Ant			R.Thigh.Lower.Post			R.Thigh.Upper.Ant			R.Knee.Lat			R.Knee.Med			R.Shank.Upper.Post			R.Shank.Lower.Ant			R.Shank.Lower.Post			R.Shank.Upper.Ant			R.Ankle.Lat			R.Ankle.Med			R.Heel.Upper			R.Heel.Med			R.Heel.Lat			R.Toe.Lat			R.Toe.Med			R.Toe.Tip			L.Thigh.Upper.Post			L.Thigh.Lower.Ant			L.Thigh.Lower.Post			L.Thigh.Upper.Ant			L.Knee.Lat			L.Knee.Med			L.Shank.Upper.Post			L.Shank.Lower.Ant			L.Shank.Lower.Post			L.Shank.Upper.Ant			L.Ankle.Lat			L.Ankle.Med			L.Heel.Upper			L.Heel.Med			L.Heel.Lat			L.Toe.Lat			L.Toe.Med			L.Toe.Tip			Cervical.Spine			Back			
		X1	Y1	Z1	X2	Y2	Z2	X3	Y3	Z3	X4	Y4	Z4	X5	Y5	Z5	X6	Y6	Z6	X7	Y7	Z7	X8	Y8	Z8	X9	Y9	Z9	X10	Y10	Z10	X11	Y11	Z11	X12	Y12	Z12	X13	Y13	Z13	X14	Y14	Z14	X15	Y15	Z15	X16	Y16	Z16	X17	Y17	Z17	X18	Y18	Z18	X19	Y19	Z19	X20	Y20	Z20	X21	Y21	Z21	X22	Y22	Z22	X23	Y23	Z23	X24	Y24	Z24	X25	Y25	Z25	X26	Y26	Z26	X27	Y27	Z27	X28	Y28	Z28	X29	Y29	Z29	X30	Y30	Z30	X31	Y31	Z31	X32	Y32	Z32	X33	Y33	Z33	X34	Y34	Z34	X35	Y35	Z35	X36	Y36	Z36	X37	Y37	Z37	X38	Y38	Z38	X39	Y39	Z39	X40	Y40	Z40	X41	Y41	Z41	X42	Y42	Z42	X43	Y43	Z43	X44	Y44	Z44	X45	Y45	Z45	X46	Y46	Z46	X47	Y47	Z47	X48	Y48	Z48	X49	Y49	Z49	X50	Y50	Z50	X51	Y51	Z51	

267	1.1083	641.5	1284.1	339.62	518.78	1509.5	523.88	496.68	1500.3	173.73	528.3	1836.2	341.5	616.16	1001.4	480.65	619.42	1011.3	226.56	403.42	1042.8	373.42	414.35	1043.7	292.7	523.9	924.69	539.83	508.93	928.23	156.01	529.81	1089.8	520.02	517.47	1097.1	177.48	386.97	1001.7	332.87	527.69	661.94	515.34	602.97	581.8	477.61	528.25	572.4	497.72	612	689.5	504.73	555.39	506.7	485.87	524.85	504.1	353.55	472.83	281.88	474.92	534.21	204.63	424.32	468.64	213.33	455.19	535.5	273.07	452.05	476.09	101.78	428.9	489.21	118.95	339.09	407.85	74.781	373.76	414.51	44.808	342.23	413.35	42.09	407.64	586.81	39.218	447.73	615.13	43.425	326.41	680.76	61.418	371.34	584.52	690.7	162.67	696.69	633.58	166.48	627.2	612.96	175.04	649.96	709.69	152.08	682.93	541.58	179.98	693.99	525.98	310.9	524.15	433.71	194.11	536.47	323.48	187.92	488.86	364.93	199.96	572.16	391.45	181.33	436.74	205.74	207.32	451.35	213.08	300.33	356.57	219.85	259.94	351.18	195.34	294.33	344.12	193.91	232.45	492.37	90.708	185.52	531.96	84.476	297.23	581.88	66.071	246.42	459.95	1555.5	356.85	381.96	1296.9	334.46
268	1.1125	646.2	1284	339.95	523.31	1509.4	523.94	501.74	1500.2	173.75	533.18	1836.1	341.45	620.18	1001.3	481.15	624.53	1011.4	227.04	407.89	1042.7	372.95	419.13	1043.5	292.28	527.54	924.55	539.86	514.47	928.26	155.95	533.63	1089.7	520.18	522.6	1097	177.51	391.59	1001.6	332.39	529.85	661.96	515.35	604.7	581.34	477.87	529.93	572.41	497.84	614.37	688.97	504.93	556.61	506.5	486.06	526.38	504.01	353.63	473.35	281.97	474.89	534.55	204.55	424.34	468.96	213.41	455.07	536.03	272.95	452.1	476.14	101.88	428.78	489.2	118.91	338.9	407.89	74.888	373.69	414.51	44.854	342.19	413.35	42.229	407.62	586.82	39.203	447.72	615.08	43.243	326.33	680.84	61.186	371.32	591.27	691.1	162.94	703.85	634.71	167.01	634.43	613.67	175.43	656.61	710.51	152.42	690.86	542.63	180.59	701.97	527.3	311.43	533.88	431.8	194.36	548.27	321.83	188.29	499.85	362.38	200.21	582.65	390.44	181.65	450.71	202.16	207.47	464.98	209.83	300.59	370.15	214.68	259.94	365.25	190.05	294.38	358.34	188.47	232.5	508.72	88.299	185.83	548.23	82.83	297.59	598.61	65.464	246.86	464.78	1555.4	356.82	386.73	1296.9	334.31
269	1.1167	650.9	1283.9	340.27	527.85	1509.3	523.99	506.81	1500	173.76	538.08	1836	341.4	624.21	1001.1	481.63	629.63	1011.4	227.51	412.36	1042.5	372.49	423.9	1043.4	291.86	531.2	924.39	539.87	519.99	928.25	155.89	537.47	1089.6	520.33	527.71	1096.9	177.53	396.21	1001.4	331.92	532.05	661.98	515.34	606.45	580.89	478.1	531.62	572.42	497.95	616.77	688.43	505.1	557.84	506.29	486.24	527.9	503.91	353.7	473.86	282.07	474.85	534.89	204.47	424.37	469.28	213.5	454.95	536.56	272.85	452.15	476.2	101.97	428.66	489.18	118.88	338.71	407.93	74.995	373.61	414.52	44.902	342.17	413.36	42.366	407.6	586.84	39.189	447.72	615.02	43.065	326.25	680.93	60.964	371.3	597.93	691.46	163.22	710.91	635.78	167.54	641.56	614.33	175.84	663.17	711.27	152.75	698.69	543.62	181.2	709.85	528.57	311.94	543.6	429.84	194.59	560.08	320.17	188.65	510.87	359.79	200.44	593.12	389.41	181.96	464.78	198.57	207.62	478.68	206.58	300.85	383.83	209.49	259.92	379.43	184.75	294.41	372.67	183.02	232.53	525.15	85.939	186.15	564.54	81.247	297.97	615.38	64.931	247.34	469.61	1555.4	356.77	391.5	1296.9	334.15
270	1.1208	655.59	1283.7	340.59	532.38	1509.2	524.03	511.9	1499.8	173.77	542.99	1835.9	341.35	628.23	1001	482.09	634.71	1011.5	227.96	416.84	1042.3	372.03	428.67	1043.2	291.44	534.88	924.22	539.88	525.48	928.21	155.84	541.33	1089.4	520.47	532.81	1096.8	177.54	400.84	1001.2	331.45	534.27	662.01	515.34	608.22	580.44	478.32	533.35	572.43	498.06	619.19	687.89	505.24	559.09	506.08	486.41	529.42	503.82	353.76	474.37	282.18	474.8	535.22	204.39	424.39	469.61	213.59	454.83	537.09	272.74	452.2	476.26	102.08	428.54	489.16	118.85	338.53	407.98	75.101	373.53	414.54	44.95	342.15	413.37	42.504	407.57	586.86	39.177	447.71	614.95	42.893	326.18	681.01	60.751	371.28	604.51	691.78	163.52	717.86	636.77	168.05	648.59	614.93	176.26	669.64	711.96	153.07	706.43	544.56	181.8	717.64	529.79	312.45	553.31	427.82	194.82	571.91	318.5	189.01	521.9	357.16	200.67	603.58	388.35	182.28	478.94	195	207.77	492.44	203.33	301.11	397.6	204.28	259.88	393.71	179.46	294.41	387.13	177.58	232.53	541.67	83.636	186.49	580.91	79.735	298.37	632.18	64.479	247.86	474.45	1555.3	356.72	396.27	1296.8	333.98
271	1.125	660.29	1283.4	340.9	536.92	1509.1	524.07	516.99	1499.6	173.76	547.92	1835.7	341.28	632.26	1000.8	482.52	639.78	1011.5	228.39	421.33	1042.1	371.58	433.44	1043	291.02	538.59	924.04	539.88	530.95	928.14	155.79	545.21	1089.2	520.59	537.91	1096.6	177.55	405.47	1001	330.98	536.52	662.03	515.32	610.01	579.99	478.52	535.09	572.44	498.17	621.63	687.34	505.37	560.36	505.86	486.58	530.93	503.73	353.81	474.89	282.29	474.74	535.56	204.31	424.42	469.93	213.69	454.71	537.61	272.64	452.24	476.33	102.18	428.43	489.15	118.84	338.36	408.03	75.206	373.46	414.58	45	342.14	413.39	42.641	407.54	586.87	39.164	447.7	614.87	42.726	326.1	681.1	60.546	371.27	611.02	692.05	163.83	724.72	637.7	168.55	655.53	615.48	176.7	676.03	712.6	153.37	714.08	545.45	182.39	725.34	530.96	312.95	563.01	425.75	195.02	583.75	316.82	189.36	532.95	354.5	200.88	614.01	387.26	182.58	493.19	191.44	207.91	506.27	200.11	301.37	411.48	199.08	259.81	408.1	174.18	294.4	401.72	172.14	232.52	558.26	81.396	186.85	597.31	78.301	298.8	649.01	64.114	248.42	479.3	1555.2	356.66	401.04	1296.8	333.79
272	1.1292	664.99	1283.2	341.21	541.46	1508.9	524.1	522.1	1499.4	173.75	552.86	1835.5	341.22	636.29	1000.5	482.94	644.83	1011.5	228.81	425.82	1041.9	371.13	438.21	1042.7	290.61	542.33	923.83	539.88	536.39	928.05	155.74	549.12	1089	520.71	542.99	1096.4	177.55	410.11	1000.8	330.52	538.8	662.05	515.31	611.81	579.54	478.71	536.86	572.44	498.28	624.09	686.8	505.47	561.63	505.64	486.74	532.43	503.65	353.86	475.4	282.4	474.68	535.9	204.24	424.44	470.26	213.8	454.59	538.13	272.55	452.29	476.4	102.29	428.31	489.15	118.84	338.2	408.08	75.31	373.38	414.62	45.051	342.13	413.41	42.778	407.5	586.89	39.153	447.69	614.79	42.566	326.03	681.18	60.349	371.25	617.44	692.28	164.15	731.47	638.56	169.04	662.38	615.98	177.14	682.34	713.17	153.67	721.63	546.28	182.98	732.94	532.08	313.44	572.7	423.64	195.21	595.6	315.14	189.71	544.03	351.8	201.09	624.44	386.15	182.89	507.55	187.9	208.06	520.17	196.91	301.64	425.45	193.88	259.72	422.6	168.92	294.36	416.43	166.72	232.49	574.92	79.225	187.24	613.75	76.952	299.26	665.87	63.842	249.03	484.15	1555.1	356.58	405.82	1296.7	333.59
